<svg xmlns="http://www.w3.org/2000/svg" viewBox="0 0 120 120" width="120" height="120" role="img" aria-label="Refugio">
  <title>Refugio — isotipo</title>
  <defs>
    <linearGradient id="hojaI" x1="0%" y1="0%" x2="100%" y2="100%">
      <stop offset="0%" stop-color="#8AB39E"/>
      <stop offset="100%" stop-color="#3B6357"/>
    </linearGradient>
    <radialGradient id="brilloI" cx="32%" cy="26%" r="70%">
      <stop offset="0%" stop-color="#B7A9D6" stop-opacity="0.5"/>
      <stop offset="55%" stop-color="#B7A9D6" stop-opacity="0"/>
    </radialGradient>
  </defs>
  <path d="M60 6 a54 54 0 0 1 54 54 a54 54 0 0 1 -54 54 h-44 a10 10 0 0 1 -10 -10 v-44 a54 54 0 0 1 54 -54 z" fill="url(#hojaI)"/>
  <path d="M60 6 a54 54 0 0 1 54 54 a54 54 0 0 1 -54 54 h-44 a10 10 0 0 1 -10 -10 v-44 a54 54 0 0 1 54 -54 z" fill="url(#brilloI)"/>
  <path d="M24 96 C 40 76, 50 62, 62 50 C 72 40, 82 33, 90 29" fill="none" stroke="#FFFFFF" stroke-width="6" stroke-linecap="round" opacity="0.95"/>
  <path d="M46 70 C 54 68, 62 68, 70 70" fill="none" stroke="#FFFFFF" stroke-width="4.5" stroke-linecap="round" opacity="0.75"/>
  <path d="M60 52 C 67 50, 74 50, 80 52" fill="none" stroke="#FFFFFF" stroke-width="4" stroke-linecap="round" opacity="0.65"/>
  <circle cx="94" cy="26" r="7" fill="#B7A9D6"/>
  <circle cx="94" cy="26" r="12" fill="none" stroke="#B7A9D6" stroke-width="2" opacity="0.45"/>
</svg>
